<?xml version="1.0" standalone="no"?>
<!DOCTYPE svg PUBLIC "-//W3C//DTD SVG 20010904//EN"
 "http://www.w3.org/TR/2001/REC-SVG-20010904/DTD/svg10.dtd">
<svg version="1.0" xmlns="http://www.w3.org/2000/svg"
 width="216.000000pt" height="180.000000pt" viewBox="0 0 216.000000 180.000000"
 preserveAspectRatio="xMidYMid meet">

<g transform="translate(0.000000,180.000000) scale(0.100000,-0.100000)"
fill="#524da8" stroke="none">
<path d="M65 1791 c-36 -15 -60 -51 -59 -89 0 -27 18 -66 65 -144 l64 -107
423 -1 422 0 0 -492 c0 -361 3 -501 12 -525 9 -24 9 -39 2 -51 -13 -21 -60
-28 -80 -11 -16 13 -19 55 -4 64 6 4 10 175 10 481 l0 474 -370 0 c-203 0
-370 -2 -370 -5 0 -12 805 -1333 826 -1355 19 -19 35 -25 69 -25 34 0 50 6 69
25 21 22 826 1343 826 1355 0 3 -164 5 -365 5 l-365 0 0 -471 c0 -315 4 -477
11 -490 15 -28 -13 -69 -46 -69 -33 0 -61 41 -46 69 7 13 11 184 11 520 l0
501 423 0 422 1 64 107 c76 126 83 165 38 210 l-27 27 -1003 2 c-551 1 -1011
-2 -1022 -6z m1716 -61 c23 -13 25 -47 2 -72 -18 -20 -48 -24 -58 -8 -4 6
-230 10 -646 10 l-639 0 0 -35 0 -35 254 0 c159 0 257 4 261 10 9 14 48 13 63
-2 18 -18 15 -66 -5 -75 -10 -4 -159 -7 -330 -5 l-313 3 0 100 0 99 668 0
c413 0 673 4 682 10 19 13 37 12 61 0z m-16 -175 l0 -30 -322 -3 -323 -2 0
-640 c0 -415 4 -641 10 -645 19 -12 10 -54 -15 -71 -23 -15 -27 -15 -50 0 -25
17 -34 59 -15 71 7 4 10 242 10 681 l0 674 353 -2 352 -3 0 -30z"/>
</g>
</svg>
